<?xml version="1.0" standalone="no"?>
<!DOCTYPE svg PUBLIC "-//W3C//DTD SVG 20010904//EN"
 "http://www.w3.org/TR/2001/REC-SVG-20010904/DTD/svg10.dtd">
<svg version="1.0" xmlns="http://www.w3.org/2000/svg"
 width="1280.000000pt" height="919.000000pt" viewBox="0 0 1280.000000 919.000000"
 preserveAspectRatio="xMidYMid meet">
<metadata>
Created by potrace 1.15, written by Peter Selinger 2001-2017
</metadata>
<g transform="translate(0.000000,919.000000) scale(0.100000,-0.100000)"
fill="#02a49d" stroke="none">
<path d="M12640 9183 c-14 -2 -68 -12 -120 -22 -52 -11 -126 -22 -165 -25 -38
-3 -113 -17 -165 -31 -122 -33 -450 -108 -560 -129 -386 -75 -978 -310 -1755
-699 -751 -375 -1457 -815 -2211 -1378 -462 -345 -972 -765 -1241 -1022 l-81
-78 -259 172 c-445 296 -556 382 -764 589 -143 143 -224 237 -306 360 -107
159 -221 269 -378 362 -303 181 -731 212 -1071 78 -90 -36 -147 -66 -292 -157
-130 -81 -341 -190 -452 -232 -150 -57 -222 -68 -475 -75 -627 -16 -1209 -94
-1795 -241 -158 -39 -408 -113 -430 -127 -11 -7 -10 -8 5 -4 343 93 1177 163
1965 167 239 1 292 -7 490 -68 288 -89 482 -216 668 -437 261 -312 596 -618
992 -906 205 -149 216 -158 259 -202 62 -64 132 -175 290 -457 78 -139 176
-307 217 -372 297 -469 663 -845 1114 -1145 566 -377 1493 -815 2527 -1194
l183 -67 991 -864 c546 -475 1010 -879 1033 -898 23 -19 -44 50 -149 153 -110
108 -175 179 -155 168 19 -11 139 -79 265 -152 255 -147 263 -151 220 -118
-360 278 -775 710 -1106 1151 -250 334 -408 591 -670 1094 -205 393 -328 614
-482 868 -248 408 -485 742 -704 992 -57 64 -61 72 -44 78 52 16 256 172 471
359 507 441 1440 1357 2595 2546 1008 1038 1549 1629 1661 1812 47 77 54 120
23 142 -22 15 -78 19 -139 9z"/>
</g>
</svg>
